<svg style="fill:#FBC02C;" xmlns="http://www.w3.org/2000/svg" viewBox="0 0 65 32"><defs><style>.a{isolation:isolate;}.b,.c{mix-blend-mode:overlay;}</style></defs><g class="a"><path class="b" d="M37.89,30.18a5.45,5.45,0,0,1-.6.58,1.37,1.37,0,0,1-.86.24H33.66a1.4,1.4,0,0,1-.7-.12A1.17,1.17,0,0,1,32.67,29c.67-.7,1.37-1.37,2.06-2.06l2.79-2.79.53-.52A3.59,3.59,0,0,0,39.25,21c0-.2,0-.4-.07-.6A8.23,8.23,0,0,1,37.89,30.18Z"></path><path class="b" d="M41.88,26.2,39,29l-.93.93A8.29,8.29,0,0,0,40,21.49a8.16,8.16,0,0,0-1-2,5.42,5.42,0,0,0-1.78-1.72,3.38,3.38,0,0,0-2.62-.32c-.37.11-.73.34-1.09,0a.73.73,0,0,1-.24-.58c0-.88,0-1.76,0-2.65a2.85,2.85,0,0,1,.08-1c.32-.77,1.31-.83,2-.89a8.15,8.15,0,0,1,8.07,4.44,8.3,8.3,0,0,1-.77,8.53A7.85,7.85,0,0,1,41.88,26.2Z"></path><g class="c"><path class="d" d="M23,11.54a7.88,7.88,0,0,1-1.34-1.8,8.53,8.53,0,0,1-.45-1,.93.93,0,0,1-.1-.26.81.81,0,0,1,.07-.22c.06-.18.13-.35.2-.52a8.52,8.52,0,0,1,1.8-2.61c.9-.89,1.8-1.79,2.69-2.69l1.16-1.15A1.16,1.16,0,0,1,29,1.71,3.29,3.29,0,0,1,29,2.84V4.46a7.85,7.85,0,0,1,0,1,1.78,1.78,0,0,1-.68,1L27.22,7.55a6.84,6.84,0,0,0-.88,1A3.25,3.25,0,0,0,25.8,11a4.09,4.09,0,0,0,2.41,2.93A8.17,8.17,0,0,1,23,11.54Z"></path><path class="d" d="M32.26,14.74V17.1a2.41,2.41,0,0,1-.1,1,1.18,1.18,0,0,1-.7.63,7.93,7.93,0,0,1-4.21.25,8.06,8.06,0,0,1-6.13-5.54,8.3,8.3,0,0,1,0-4.91A8.08,8.08,0,0,0,24.55,13a8.28,8.28,0,0,0,2.58,1,8.74,8.74,0,0,0,1.62.18,5.91,5.91,0,0,0,1.57-.12c.43-.11.81-.39,1.28-.23a1,1,0,0,1,.66.92Z"></path></g><g class="c"><path class="d" d="M32.25,25.85V27.1a1.65,1.65,0,0,1-.38,1.33L30,30.32a1.57,1.57,0,0,1-1,.62,1.12,1.12,0,0,1-1.18-.82,5.81,5.81,0,0,1,0-.59V21.79a1.38,1.38,0,0,1,1.14-1.35,7.44,7.44,0,0,1,1.25,0,4.64,4.64,0,0,1,1.29,0c1,.33.81,1.46.81,2.27v3.11Z"></path></g></g></svg>
